# xmcd
# 
# Track frame offsets:
#     150
#     13650
#     35613
#     37418
#     55773
#     66339
#     84110
#     85475
#     99361
#     115350
#     130357
# 
# Disc length: 2047
# 
# Revision: 0
# Processed by: cddbd v1.5.2PL0 Copyright (c) Steve Scherf et al.
# Submitted via: fre:ac v1.0.31
# 
DISCID=9407fd0b
DTITLE=Kelsey Waldon - White Noise, White Lines
DYEAR=0
DGENRE=Country
TTITLE0=Anyhow
TTITLE1=White Noise, White Lines
TTITLE2=Kentucky (Interlude)
TTITLE3=Kentucky, 1988
TTITLE4=Lived and Let Go
TTITLE5=Black Patch
TTITLE6=Run (Interlude)
TTITLE7=Run Away
TTITLE8=Sunday's Children
TTITLE9=Very Old Barton
TTITLE10=My Epitaph
EXTD=
EXTT0=
EXTT1=
EXTT2=
EXTT3=
EXTT4=
EXTT5=
EXTT6=
EXTT7=
EXTT8=
EXTT9=
EXTT10=
PLAYORDER=
